<?xml version="1.0" encoding="utf-8"?>
<!-- Generator: Adobe Illustrator 18.1.1, SVG Export Plug-In . SVG Version: 6.00 Build 0)  -->
<!DOCTYPE svg PUBLIC "-//W3C//DTD SVG 1.1//EN" "http://www.w3.org/Graphics/SVG/1.1/DTD/svg11.dtd">
<svg version="1.1" id="Layer_1" xmlns="http://www.w3.org/2000/svg" xmlns:xlink="http://www.w3.org/1999/xlink" x="0px" y="0px"
	 viewBox="0 0 125.3 53" enable-background="new 0 0 125.3 53" xml:space="preserve">
<g>
	<path d="M8.3,12h5v7.2c0,3.6-1.8,5.7-5.3,5.7s-5.3-2.1-5.3-5.7V7.4c0-3.6,1.8-5.7,5.3-5.7s5.3,2.1,5.3,5.7v2.2H9.9V7.2
		C9.9,5.6,9.2,5,8.1,5S6.2,5.6,6.2,7.2v12.2c0,1.6,0.7,2.2,1.8,2.2s1.8-0.6,1.8-2.2v-4.2H8.3V12z"/>
	<path d="M19.2,11.5H24v3.2h-4.9v6.6h6.2v3.2h-9.7V2h9.7v3.2h-6.2V11.5z"/>
	<path d="M27.2,7.4c0-3.6,1.9-5.7,5.4-5.7S38,3.8,38,7.4v11.8c0,3.6-1.9,5.7-5.4,5.7s-5.4-2.1-5.4-5.7V7.4z M30.8,19.4
		c0,1.6,0.7,2.2,1.8,2.2s1.8-0.6,1.8-2.2V7.2c0-1.6-0.7-2.2-1.8-2.2s-1.8,0.6-1.8,2.2V19.4z"/>
	<path d="M47.8,24.6c-0.2-0.6-0.3-0.9-0.3-2.8v-3.6c0-2.1-0.7-2.9-2.3-2.9h-1.2v9.2h-3.6V2h5.4C49.4,2,51,3.7,51,7.2V9
		c0,2.3-0.7,3.8-2.3,4.6v0.1c1.8,0.7,2.4,2.4,2.4,4.8v3.5c0,1.1,0,1.9,0.4,2.8H47.8z M43.9,5.2v7h1.4c1.3,0,2.1-0.6,2.1-2.4V7.6
		c0-1.6-0.6-2.3-1.8-2.3H43.9z"/>
	<path d="M58.7,12h5v7.2c0,3.6-1.8,5.7-5.3,5.7s-5.3-2.1-5.3-5.7V7.4c0-3.6,1.8-5.7,5.3-5.7s5.3,2.1,5.3,5.7v2.2h-3.4V7.2
		c0-1.6-0.7-2.2-1.8-2.2s-1.8,0.6-1.8,2.2v12.2c0,1.6,0.7,2.2,1.8,2.2s1.8-0.6,1.8-2.2v-4.2h-1.6V12z"/>
	<path d="M66,2h3.6v22.7H66V2z"/>
	<path d="M75.7,11.5h4.9v3.2h-4.9v6.6h6.2v3.2h-9.7V2h9.7v3.2h-6.2V11.5z"/>
	<path d="M10.5,44.1L10.5,44.1L12.9,28h5v22.7h-3.4V34.4h-0.1l-2.4,16.3H8.7l-2.6-16H6v16H2.9V28h5L10.5,44.1z"/>
	<path d="M32,50.6h-3.6l-0.6-4.1h-4.4l-0.6,4.1h-3.3L23.2,28h5.2L32,50.6z M23.9,43.5h3.4L25.6,32h-0.1L23.9,43.5z"/>
	<path d="M31.4,28h11v3.2h-3.7v19.4h-3.6V31.2h-3.7V28z"/>
	<path d="M42.9,28h11v3.2h-3.7v19.4h-3.6V31.2h-3.7V28z"/>
	<path d="M55.5,28H59v22.7h-3.6V28z"/>
	<path d="M64.9,34.2L64.9,34.2l-0.1,16.4h-3.2V28h4.5l3.6,13.6h0.1V28h3.2v22.7h-3.7L64.9,34.2z"/>
	<path d="M80.8,38h5v7.2c0,3.6-1.8,5.7-5.3,5.7s-5.3-2.1-5.3-5.7V33.4c0-3.6,1.8-5.7,5.3-5.7s5.3,2.1,5.3,5.7v2.2h-3.4v-2.4
		c0-1.6-0.7-2.2-1.8-2.2s-1.8,0.6-1.8,2.2v12.2c0,1.6,0.7,2.2,1.8,2.2s1.8-0.6,1.8-2.2v-4.2h-1.6V38z"/>
	<path d="M88.1,28h3.6v19.4h5.9v3.2h-9.4V28z"/>
	<path d="M102.6,37.5h4.9v3.2h-4.9v6.6h6.2v3.2h-9.7V28h9.7v3.2h-6.2V37.5z"/>
	<path d="M114.3,43.1L109.8,28h3.7l2.7,10.3h0.1L119,28h3.4l-4.5,15.2v7.5h-3.6V43.1z"/>
</g>
</svg>
