<?xml version="1.0" encoding="utf-8"?>
<!-- Generator: Adobe Illustrator 17.0.0, SVG Export Plug-In . SVG Version: 6.00 Build 0)  -->
<!DOCTYPE svg PUBLIC "-//W3C//DTD SVG 1.1//EN" "http://www.w3.org/Graphics/SVG/1.1/DTD/svg11.dtd">
<svg version="1.1" id="Layer_1" xmlns="http://www.w3.org/2000/svg" xmlns:xlink="http://www.w3.org/1999/xlink" x="0px" y="0px"
	 width="788.977px" height="287.736px" viewBox="0 0 788.977 287.736" enable-background="new 0 0 788.977 287.736"
	 xml:space="preserve">
<path d="M1.707,33.897c0-4.651,0.7-9.047,2.101-13.192c1.401-4.144,3.473-7.75,6.216-10.822c2.742-3.07,6.201-5.485,10.375-7.245
	C24.572,0.88,29.462,0,35.068,0c5.604,0,10.538,0.97,14.802,2.907c4.262,1.938,7.826,4.561,10.688,7.87
	c2.862,3.309,5.009,7.155,6.44,11.538s2.147,9.019,2.147,13.908v8.497H47.5c0-4.889-0.254-8.958-0.761-12.209
	c-0.507-3.249-1.297-5.814-2.37-7.692c-1.073-1.878-2.445-3.189-4.114-3.935c-1.67-0.745-3.609-1.118-5.814-1.118
	c-2.803,0-5.173,1.015-7.11,3.041c-1.938,2.028-2.907,5.844-2.907,11.448v67.974c0,4.234,0.789,7.602,2.37,10.106
	c1.579,2.504,4.338,3.756,8.273,3.756c4.59,0,7.81-1.4,9.659-4.203c1.847-2.802,2.773-7.513,2.773-14.132v-12.79H33.011V66.991
	h37.207v67.079H59.216l-4.203-9.928c-3.399,4.056-6.723,7.022-9.972,8.899c-3.251,1.879-7.558,2.818-12.924,2.818
	c-9.064,0-16.398-2.981-22.002-8.944c-5.605-5.962-8.407-14.251-8.407-24.864V33.897z"/>
<path d="M93.293,1.789h60.819v19.856h-38.101v33.987h29.336v19.856h-29.336v38.817h40.606v19.766H93.293V1.789z"/>
<path d="M174.593,33.897c0-4.651,0.7-9.047,2.101-13.192c1.401-4.144,3.533-7.75,6.395-10.822c2.862-3.07,6.469-5.485,10.822-7.245
	C198.264,0.88,203.422,0,209.385,0c5.962,0,11.12,0.88,15.473,2.638c4.352,1.76,7.96,4.175,10.822,7.245
	c2.862,3.072,4.993,6.679,6.395,10.822c1.4,4.145,2.101,8.542,2.101,13.192v68.153c0,4.592-0.701,8.974-2.101,13.147
	c-1.402,4.175-3.533,7.782-6.395,10.823c-2.862,3.041-6.47,5.442-10.822,7.2c-4.353,1.758-9.511,2.639-15.473,2.639
	c-5.963,0-11.121-0.881-15.473-2.639c-4.353-1.758-7.96-4.159-10.822-7.2c-2.862-3.041-4.994-6.632-6.395-10.778
	c-1.402-4.144-2.101-8.541-2.101-13.192V33.897z M199.86,112.515c1.699,2.386,4.875,3.577,9.525,3.577
	c4.651,0,7.826-1.191,9.525-3.577c1.699-2.385,2.549-6.082,2.549-11.09V34.434c0-5.008-0.85-8.705-2.549-11.09
	c-1.699-2.384-4.875-3.578-9.525-3.578c-4.651,0-7.826,1.193-9.525,3.578c-1.699,2.385-2.549,6.082-2.549,11.09v66.991
	C197.311,106.433,198.161,110.13,199.86,112.515z"/>
<path d="M266.179,1.789h31.84c12.701,0,22.284,2.996,28.755,8.989c6.469,5.992,9.704,16.025,9.704,30.096
	c0,5.367-0.447,9.943-1.342,13.729c-0.895,3.787-2.117,6.992-3.667,9.615c-1.551,2.624-3.265,4.727-5.143,6.305
	c-1.878,1.581-3.801,2.789-5.769,3.623l19.229,59.924h-23.075l-16.099-54.737c-1.491,0.239-3.295,0.388-5.411,0.448
	c-2.117,0.059-4.219,0.089-6.305,0.089v54.201h-22.717V1.789z M296.946,61.177c3.041,0,5.635-0.313,7.781-0.939
	c2.146-0.626,3.89-1.729,5.232-3.309c1.341-1.579,2.31-3.667,2.906-6.261c0.595-2.594,0.895-5.859,0.895-9.794
	c0-7.87-1.283-13.237-3.846-16.099c-2.565-2.862-6.887-4.293-12.969-4.293h-8.05v40.695H296.946z"/>
<path d="M357.766,33.897c0-4.651,0.7-9.047,2.101-13.192c1.401-4.144,3.473-7.75,6.216-10.822c2.743-3.07,6.2-5.485,10.376-7.245
	C380.631,0.88,385.521,0,391.127,0c5.603,0,10.538,0.97,14.802,2.907c4.261,1.938,7.827,4.561,10.688,7.87s5.009,7.155,6.44,11.538
	c1.431,4.382,2.145,9.019,2.145,13.908v8.497h-21.643c0-4.889-0.254-8.958-0.76-12.209c-0.508-3.249-1.297-5.814-2.37-7.692
	c-1.073-1.878-2.445-3.189-4.115-3.935c-1.668-0.745-3.607-1.118-5.813-1.118c-2.803,0-5.173,1.015-7.11,3.041
	c-1.939,2.028-2.907,5.844-2.907,11.448v67.974c0,4.234,0.789,7.602,2.37,10.106c1.579,2.504,4.338,3.756,8.274,3.756
	c4.59,0,7.81-1.4,9.659-4.203c1.847-2.802,2.772-7.513,2.772-14.132v-12.79h-14.489V66.991h37.207v67.079h-11.001l-4.205-9.928
	c-3.399,4.056-6.723,7.022-9.972,8.899c-3.251,1.879-7.558,2.818-12.925,2.818c-9.064,0-16.397-2.981-22.002-8.944
	c-5.605-5.962-8.407-14.251-8.407-24.864V33.897z"/>
<path d="M452.482,1.789H475.2V134.07h-22.718V1.789z"/>
<path d="M500.242,1.789h60.82v19.856H522.96v33.987h29.336v19.856H522.96v38.817h40.605v19.766h-63.323V1.789z"/>
<path d="M0.455,146.666h29.783l16.188,77.365h0.358l16.099-77.365h29.873v132.281H72.99V175.645h-0.447L52.061,278.947H41.06
	L20.579,175.645h-0.358v103.302H0.455V146.666z"/>
<path d="M128.897,146.666h28.249l24.066,132.281h-21.644l-4.036-29.336h-25.021l-4.036,29.336H104.83L128.897,146.666z
	 M152.214,229.844l-8.969-56.794h-0.358l-9.059,56.794H152.214z"/>
<path d="M179.334,146.666h66.632v19.855h-22.002v112.425h-22.717V166.521h-21.913V146.666z"/>
<path d="M250.527,146.666h66.632v19.855h-22.002v112.425H272.44V166.521h-21.913V146.666z"/>
<path d="M333.617,146.666h22.717v132.281h-22.717V146.666z"/>
<path d="M381.377,146.666h21.018l27.727,75.665h0.357v-75.665h20.482v132.281h-19.767l-28.978-82.642h-0.357v82.642h-20.482V146.666
	z"/>
<path d="M472.963,178.775c0-4.651,0.701-9.047,2.102-13.193c1.4-4.144,3.473-7.75,6.216-10.822c2.742-3.071,6.2-5.486,10.375-7.245
	c4.173-1.758,9.063-2.639,14.668-2.639c5.604,0,10.538,0.969,14.802,2.906c4.262,1.939,7.827,4.562,10.688,7.871
	c2.862,3.308,5.009,7.155,6.44,11.537c1.431,4.383,2.146,9.02,2.146,13.908v8.496h-21.644c0-4.888-0.254-8.958-0.76-12.209
	c-0.507-3.249-1.297-5.813-2.37-7.691c-1.073-1.879-2.445-3.189-4.114-3.935c-1.669-0.745-3.608-1.118-5.813-1.118
	c-2.804,0-5.174,1.015-7.111,3.042c-1.938,2.027-2.906,5.844-2.906,11.448v67.975c0,4.234,0.789,7.602,2.37,10.106
	c1.579,2.504,4.338,3.756,8.273,3.756c4.59,0,7.81-1.4,9.659-4.203c1.847-2.802,2.772-7.513,2.772-14.132v-12.79h-14.489v-17.977
	h37.207v67.079h-11.001l-4.204-9.928c-3.399,4.056-6.724,7.022-9.973,8.899c-3.25,1.879-7.557,2.818-12.924,2.818
	c-9.064,0-16.398-2.981-22.002-8.944c-5.605-5.962-8.408-14.251-8.408-24.864V178.775z"/>
<path d="M563.477,146.666h22.717v112.515h35.687v19.766h-58.404V146.666z"/>
<path d="M635.743,146.666h60.82v19.855h-38.102v33.987h29.336v19.855h-29.336v38.817h40.605v19.766h-63.323V146.666z"/>
<path d="M730.907,146.666l15.965,50.444h0.359l15.249-50.444h23.075l-27.471,77.365v54.916h-22.782v-54.916l-27.47-77.365H730.907z"
	/>
</svg>
