<?xml version="1.0" encoding="utf-8"?>
<!-- Generator: Adobe Illustrator 17.0.0, SVG Export Plug-In . SVG Version: 6.00 Build 0)  -->
<!DOCTYPE svg PUBLIC "-//W3C//DTD SVG 1.1//EN" "http://www.w3.org/Graphics/SVG/1.1/DTD/svg11.dtd">
<svg version="1.1" id="Layer_1" xmlns="http://www.w3.org/2000/svg" xmlns:xlink="http://www.w3.org/1999/xlink" x="0px" y="0px"
	 width="788.977px" height="286.459px" viewBox="0 0 788.977 286.459" enable-background="new 0 0 788.977 286.459"
	 xml:space="preserve">
<path d="M33.833,62.229h30.208v43.5c0,21.75-10.875,34.437-32.021,34.437S0,127.479,0,105.729V34.437C0,12.688,10.875,0,32.021,0
	s32.021,12.688,32.021,34.437v13.292H43.5v-14.5c0-9.666-4.229-13.292-10.875-13.292s-11.479,3.625-11.479,13.292v73.708
	c0,9.666,4.229,13.292,10.875,13.292s10.875-3.625,10.875-13.292V81.562h-9.063V62.229z"/>
<path d="M106.687,59.208h29v19.333h-29.604v39.875h37.458v19.333H84.937V1.813h58.604v19.333h-37.458v38.063L106.687,59.208
	L106.687,59.208z"/>
<path d="M162.02,34.437C162.02,12.688,173.499,0,194.645,0s32.625,12.688,32.625,34.437v71.291c0,21.75-11.479,34.437-32.625,34.437
	s-32.625-12.688-32.625-34.437L162.02,34.437L162.02,34.437z M183.771,106.937c0,9.666,4.229,13.292,10.875,13.292
	s10.875-3.625,10.875-13.292V33.229c0-9.666-4.229-13.292-10.875-13.292s-10.875,3.625-10.875,13.292V106.937z"/>
<path d="M293.479,138.354c-1.208-3.625-1.813-5.437-1.813-16.916v-21.75c0-12.688-4.229-17.521-13.896-17.521h-7.25v55.583h-21.75
	V1.813h32.625c21.75,0,31.417,10.271,31.417,31.417v10.875c0,13.896-4.229,22.958-13.896,27.791V72.5
	c10.875,4.229,14.5,14.5,14.5,29v21.145c0,6.646,0,11.479,2.417,16.916H293.48L293.479,138.354L293.479,138.354z M269.916,21.145
	v42.292h8.459c7.854,0,12.688-3.625,12.688-14.5V35.646c0-9.666-3.625-13.896-10.875-13.896h-10.271L269.916,21.145L269.916,21.145z
	"/>
<path d="M366.333,62.229h30.208v43.5c0,21.75-10.875,34.437-32.021,34.437c-21.146,0-32.021-12.688-32.021-34.437V34.437
	C332.499,12.688,343.375,0,364.52,0c21.145,0,32.021,12.688,32.021,34.437v13.292h-20.542v-14.5c0-9.666-4.229-13.292-10.875-13.292
	s-10.875,3.625-10.875,13.292v73.708c0,9.666,4.229,13.292,10.875,13.292s10.875-3.625,10.875-13.292V81.562h-9.666L366.333,62.229
	L366.333,62.229z"/>
<path d="M417.436,1.813h21.75v137.145h-21.75V1.813z"/>
<path d="M483.041,59.208h29.604v19.333h-29.604v39.875h37.458v19.333h-58.605V1.813h58.604v19.333H483.04L483.041,59.208
	L483.041,59.208z"/>
<path d="M45.916,245.375L45.916,245.375l14.5-97.27h30.208v137.145H70.083v-98.479h-0.604l-14.5,98.479H35.041l-15.708-96.667
	h-0.604v96.667H0V148.106h30.208L45.916,245.375z"/>
<path d="M182.812,284.647h-21.75l-3.625-24.771h-26.584l-3.625,24.771h-19.938l22.354-136.541h31.417L182.812,284.647z
	 M133.875,241.751h20.542l-10.271-69.479h-0.604L133.875,241.751z"/>
<path d="M186.187,148.106h66.458v19.333h-22.354v117.208h-21.75V167.438h-22.354L186.187,148.106L186.187,148.106z"/>
<path d="M266.666,148.106h66.458v19.333h-22.354v117.208h-21.75V167.438h-22.354L266.666,148.106L266.666,148.106z"/>
<path d="M349.791,148.106h21.145v137.145h-21.75V148.106H349.791z"/>
<path d="M413.582,185.563L413.582,185.563l-0.604,99.083h-19.333v-136.54h27.188l21.75,82.166h0.604v-82.166h19.333v137.145h-22.354
	L413.582,185.563z"/>
<path d="M516.644,208.521h30.208v43.5c0,21.75-10.875,34.437-32.021,34.437c-21.146,0-32.021-12.688-32.021-34.437V180.73
	c0-21.75,10.875-34.437,32.021-34.437c21.146,0,32.021,12.688,32.021,34.437v13.292H526.31v-14.5
	c0-9.666-4.229-13.292-10.875-13.292c-6.646,0-10.875,3.625-10.875,13.292v73.708c0,9.666,4.229,13.292,10.875,13.292
	c6.646,0,10.875-3.625,10.875-13.292v-25.375h-9.666V208.521L516.644,208.521z"/>
<path d="M567.748,148.106h21.75v117.209h35.646v19.333h-56.792V148.106H567.748z"/>
<path d="M662.352,205.501h29.604v19.333h-29.604v39.875h37.458v19.333h-58.604V148.106h58.604v19.333h-37.458V205.501z"/>
<path d="M740.04,239.334l-27.188-91.228h22.354l16.312,62.229h0.604l16.312-62.229h20.542l-27.187,91.833v45.312h-21.75V239.334z"/>
</svg>
